<?xml version="1.0" encoding="UTF-8" standalone="no"?>
<svg
   xmlns:dc="http://purl.org/dc/elements/1.1/"
   xmlns:cc="http://creativecommons.org/ns#"
   xmlns:rdf="http://www.w3.org/1999/02/22-rdf-syntax-ns#"
   xmlns:svg="http://www.w3.org/2000/svg"
   xmlns="http://www.w3.org/2000/svg"
   xmlns:sodipodi="http://sodipodi.sourceforge.net/DTD/sodipodi-0.dtd"
   xmlns:inkscape="http://www.inkscape.org/namespaces/inkscape"
   height="36.868248mm"
   id="Layer_1"
   version="1.1"
   viewBox="0 0 438.83453 104.50976"
   width="154.81107mm"
   x="0px"
   xml:space="preserve"
   y="0px"
   inkscape:version="0.91 r13725"
   sodipodi:docname="dc_motor.svg"><metadata
     id="metadata83"><rdf:RDF><cc:Work
         rdf:about=""><dc:format>image/svg+xml</dc:format><dc:type
           rdf:resource="http://purl.org/dc/dcmitype/StillImage" /><dc:title></dc:title></cc:Work></rdf:RDF></metadata><defs
     id="defs81"><marker
       inkscape:stockid="Arrow2Lend"
       orient="auto"
       refY="0"
       refX="0"
       id="Arrow2Lend"
       style="overflow:visible"
       inkscape:isstock="true"><path
         id="path4377"
         style="fill-rule:evenodd;stroke-width:0.625;stroke-linejoin:round"
         d="M 8.7185878,4.0337352 -2.2072895,0.01601326 8.7185884,-4.0017078 c -1.7454984,2.3720609 -1.7354408,5.6174519 -6e-7,8.035443 z"
         transform="matrix(-1.1,0,0,-1.1,-1.1,0)"
         inkscape:connector-curvature="0" /></marker><marker
       inkscape:stockid="Arrow2Lend"
       orient="auto"
       refY="0"
       refX="0"
       id="marker5063"
       style="overflow:visible"
       inkscape:isstock="true"><path
         id="path5065"
         style="fill:#b3b3b3;fill-opacity:1;fill-rule:evenodd;stroke:#b3b3b3;stroke-width:0.625;stroke-linejoin:round;stroke-opacity:1"
         d="M 8.7185878,4.0337352 -2.2072895,0.01601326 8.7185884,-4.0017078 c -1.7454984,2.3720609 -1.7354408,5.6174519 -6e-7,8.035443 z"
         transform="matrix(-1.1,0,0,-1.1,-1.1,0)"
         inkscape:connector-curvature="0" /></marker><marker
       inkscape:isstock="true"
       style="overflow:visible"
       id="marker4979"
       refX="0"
       refY="0"
       orient="auto"
       inkscape:stockid="Arrow2Lend"
       inkscape:collect="always"><path
         transform="matrix(-1.1,0,0,-1.1,-1.1,0)"
         d="M 8.7185878,4.0337352 -2.2072895,0.01601326 8.7185884,-4.0017078 c -1.7454984,2.3720609 -1.7354408,5.6174519 -6e-7,8.035443 z"
         style="fill:#000000;fill-opacity:1;fill-rule:evenodd;stroke:#000000;stroke-width:0.625;stroke-linejoin:round;stroke-opacity:1"
         id="path4981"
         inkscape:connector-curvature="0" /></marker><marker
       inkscape:isstock="true"
       style="overflow:visible"
       id="marker4939"
       refX="0"
       refY="0"
       orient="auto"
       inkscape:stockid="Arrow2Lend"><path
         transform="matrix(-1.1,0,0,-1.1,-1.1,0)"
         d="M 8.7185878,4.0337352 -2.2072895,0.01601326 8.7185884,-4.0017078 c -1.7454984,2.3720609 -1.7354408,5.6174519 -6e-7,8.035443 z"
         style="fill:#000000;fill-opacity:1;fill-rule:evenodd;stroke:#000000;stroke-width:0.625;stroke-linejoin:round;stroke-opacity:1"
         id="path4941"
         inkscape:connector-curvature="0" /></marker><marker
       inkscape:stockid="Arrow2Lend"
       orient="auto"
       refY="0"
       refX="0"
       id="Arrow2Lend-3"
       style="overflow:visible"
       inkscape:isstock="true"><path
         inkscape:connector-curvature="0"
         id="path4377-4"
         style="fill:#000000;fill-opacity:1;fill-rule:evenodd;stroke:#000000;stroke-width:0.625;stroke-linejoin:round;stroke-opacity:1"
         d="M 8.7185878,4.0337352 -2.2072895,0.01601326 8.7185884,-4.0017078 c -1.7454984,2.3720609 -1.7354408,5.6174519 -6e-7,8.035443 z"
         transform="matrix(-1.1,0,0,-1.1,-1.1,0)" /></marker><marker
       inkscape:stockid="Arrow2Lend"
       orient="auto"
       refY="0"
       refX="0"
       id="marker5063-7"
       style="overflow:visible"
       inkscape:isstock="true"><path
         inkscape:connector-curvature="0"
         id="path5065-1"
         style="fill:#b3b3b3;fill-opacity:1;fill-rule:evenodd;stroke:#b3b3b3;stroke-width:0.625;stroke-linejoin:round;stroke-opacity:1"
         d="M 8.7185878,4.0337352 -2.2072895,0.01601326 8.7185884,-4.0017078 c -1.7454984,2.3720609 -1.7354408,5.6174519 -6e-7,8.035443 z"
         transform="matrix(-1.1,0,0,-1.1,-1.1,0)" /></marker><marker
       inkscape:isstock="true"
       style="overflow:visible"
       id="marker4979-4"
       refX="0"
       refY="0"
       orient="auto"
       inkscape:stockid="Arrow2Lend"
       inkscape:collect="always"><path
         inkscape:connector-curvature="0"
         transform="matrix(-1.1,0,0,-1.1,-1.1,0)"
         d="M 8.7185878,4.0337352 -2.2072895,0.01601326 8.7185884,-4.0017078 c -1.7454984,2.3720609 -1.7354408,5.6174519 -6e-7,8.035443 z"
         style="fill:#000000;fill-opacity:1;fill-rule:evenodd;stroke:#000000;stroke-width:0.625;stroke-linejoin:round;stroke-opacity:1"
         id="path4981-3" /></marker></defs><sodipodi:namedview
     pagecolor="#ffffff"
     bordercolor="#666666"
     borderopacity="1"
     objecttolerance="10"
     gridtolerance="10"
     guidetolerance="10"
     inkscape:pageopacity="0"
     inkscape:pageshadow="2"
     inkscape:window-width="1280"
     inkscape:window-height="738"
     id="namedview79"
     showgrid="false"
     units="mm"
     inkscape:zoom="1.4541164"
     inkscape:cx="270.15802"
     inkscape:cy="34.674425"
     inkscape:window-x="-8"
     inkscape:window-y="-8"
     inkscape:window-maximized="1"
     inkscape:current-layer="Layer_1"
     fit-margin-top="1"
     fit-margin-left="1"
     fit-margin-right="1"
     fit-margin-bottom="1" /><text
     xml:space="preserve"
     style="font-style:normal;font-variant:normal;font-weight:normal;font-stretch:normal;font-size:20.00025558px;line-height:125%;font-family:serif;-inkscape-font-specification:serif;letter-spacing:0px;word-spacing:0px;fill:#000000;fill-opacity:1;stroke:none;stroke-width:1px;stroke-linecap:butt;stroke-linejoin:miter;stroke-opacity:1"
     x="189.35986"
     y="205.36586"
     id="text4328"
     sodipodi:linespacing="125%"><tspan
       sodipodi:role="line"
       id="tspan4330"
       x="189.35986"
       y="205.36586" /></text>
<text
     xml:space="preserve"
     style="font-style:normal;font-variant:normal;font-weight:normal;font-stretch:normal;font-size:20.00025558px;line-height:125%;font-family:serif;-inkscape-font-specification:serif;letter-spacing:0px;word-spacing:0px;fill:#000000;fill-opacity:1;stroke:none;stroke-width:1px;stroke-linecap:butt;stroke-linejoin:miter;stroke-opacity:1"
     x="176.41547"
     y="241.42534"
     id="text4332"
     sodipodi:linespacing="125%"><tspan
       sodipodi:role="line"
       id="tspan4334"
       x="176.41547"
       y="241.42534" /></text>
<text
     xml:space="preserve"
     style="font-style:normal;font-variant:normal;font-weight:normal;font-stretch:normal;font-size:20.00025558px;line-height:125%;font-family:serif;-inkscape-font-specification:serif;letter-spacing:0px;word-spacing:0px;fill:#000000;fill-opacity:1;stroke:none;stroke-width:1px;stroke-linecap:butt;stroke-linejoin:miter;stroke-opacity:1"
     x="183.81226"
     y="227.55629"
     id="text4336"
     sodipodi:linespacing="125%"><tspan
       sodipodi:role="line"
       id="tspan4338"
       x="183.81226"
       y="227.55629" /></text>
<g
     id="g4328"
     transform="translate(2.2870798,6.0680489e-7)"><text
       sodipodi:linespacing="125%"
       id="text4306-1"
       y="36.64307"
       x="303.33774"
       style="font-style:normal;font-variant:normal;font-weight:normal;font-stretch:normal;font-size:20.00025558px;line-height:125%;font-family:serif;-inkscape-font-specification:serif;letter-spacing:0px;word-spacing:0px;fill:#000000;fill-opacity:1;stroke:none;stroke-width:1px;stroke-linecap:butt;stroke-linejoin:miter;stroke-opacity:1"
       xml:space="preserve"><tspan
         y="36.64307"
         x="303.33774"
         id="tspan4308-7"
         sodipodi:role="line">Output:</tspan></text>
<text
       sodipodi:linespacing="125%"
       id="text4340"
       y="79.822456"
       x="304.53699"
       style="font-style:normal;font-weight:normal;font-size:20.00025558px;line-height:125%;font-family:Sans;letter-spacing:0px;word-spacing:0px;fill:#000000;fill-opacity:1;stroke:none;stroke-width:1px;stroke-linecap:butt;stroke-linejoin:miter;stroke-opacity:1"
       xml:space="preserve"><tspan
         style="font-style:normal;font-variant:normal;font-weight:normal;font-stretch:normal;font-size:13.00016594px;font-family:serif;-inkscape-font-specification:serif"
         y="79.822456"
         x="304.53699"
         id="tspan4342"
         sodipodi:role="line">Angular Velocity ω</tspan></text>
<g
       transform="translate(-102.78447,-274.74998)"
       id="g5617"><path
         inkscape:connector-curvature="0"
         id="path5061"
         d="m 412.04534,330.18998 122.04741,0"
         style="fill:#b3b3b3;fill-rule:evenodd;stroke:#b3b3b3;stroke-width:1.44001842;stroke-linecap:butt;stroke-linejoin:miter;stroke-miterlimit:4;stroke-dasharray:none;stroke-opacity:1;marker-end:url(#marker5063)" /><path
         style="fill:none;fill-rule:evenodd;stroke:#000000;stroke-width:1.44001842;stroke-linecap:butt;stroke-linejoin:miter;stroke-miterlimit:4;stroke-dasharray:none;stroke-opacity:1;marker-end:url(#marker4979)"
         d="m 407.24528,326.98994 122.04741,0"
         id="path4350-2"
         inkscape:connector-curvature="0" /></g></g><g
     id="g4319"
     transform="translate(-5.7130222,6.0680489e-7)"><text
       sodipodi:linespacing="125%"
       id="text4306"
       y="36.379395"
       x="69.399689"
       style="font-style:normal;font-variant:normal;font-weight:normal;font-stretch:normal;font-size:20.00025558px;line-height:125%;font-family:serif;-inkscape-font-specification:serif;letter-spacing:0px;word-spacing:0px;fill:#000000;fill-opacity:1;stroke:none;stroke-width:1px;stroke-linecap:butt;stroke-linejoin:miter;stroke-opacity:1"
       xml:space="preserve"><tspan
         y="36.379395"
         x="69.399689"
         id="tspan4308"
         sodipodi:role="line">Inputs:</tspan></text>
<text
       sodipodi:linespacing="125%"
       id="text4344"
       y="79.822456"
       x="8.6210938"
       style="font-style:normal;font-weight:normal;font-size:20.00025558px;line-height:125%;font-family:Sans;letter-spacing:0px;word-spacing:0px;fill:#000000;fill-opacity:1;stroke:none;stroke-width:1px;stroke-linecap:butt;stroke-linejoin:miter;stroke-opacity:1"
       xml:space="preserve"><tspan
         style="font-style:normal;font-variant:normal;font-weight:normal;font-stretch:normal;font-size:13.00016594px;font-family:serif;-inkscape-font-specification:serif"
         y="79.822456"
         x="8.6210938"
         id="tspan4346"
         sodipodi:role="line">Armature Voltage V</tspan></text>
<g
       id="g5586"
       transform="translate(-97.071502,-274.68406)"><path
         inkscape:connector-curvature="0"
         id="path5061-4"
         d="m 111.49981,330.05814 122.04741,0"
         style="fill:#b3b3b3;fill-rule:evenodd;stroke:#b3b3b3;stroke-width:1.44001842;stroke-linecap:butt;stroke-linejoin:miter;stroke-miterlimit:4;stroke-dasharray:none;stroke-opacity:1;marker-end:url(#marker5063-7)" /><path
         style="fill:#000000;fill-rule:evenodd;stroke:#000000;stroke-width:1.44001842;stroke-linecap:butt;stroke-linejoin:miter;stroke-miterlimit:4;stroke-dasharray:none;stroke-opacity:1;marker-end:url(#marker4979-4)"
         d="m 106.69975,326.8581 122.04741,0"
         id="path4350-2-3"
         inkscape:connector-curvature="0" /></g></g><g
     id="g5418"
     transform="translate(-101.87715,-275.26675)"><g
       transform="matrix(1,0,0,1.1140001,148.23962,-203.76297)"
       id="g5410"><rect
         y="435.7533"
         x="97.041733"
         height="85.52565"
         width="157.18228"
         id="rect4304"
         style="opacity:1;fill:#1a1a1a;fill-opacity:1;fill-rule:evenodd;stroke:none;stroke-width:1.20001531;stroke-linecap:round;stroke-miterlimit:4;stroke-dasharray:1.20001533, 3.60004599;stroke-dashoffset:0;stroke-opacity:1" /><rect
         style="opacity:1;fill:#cccccc;fill-opacity:1;fill-rule:evenodd;stroke:none;stroke-width:1.20001531;stroke-linecap:round;stroke-miterlimit:4;stroke-dasharray:1.20001533, 3.60004599;stroke-dashoffset:0;stroke-opacity:1"
         id="rect4278"
         width="157.18228"
         height="85.52565"
         x="93.84169"
         y="432.55328" /></g><g
       transform="translate(248.65395,293.00379)"
       id="g4247"><g
         id="g8"><rect
           style="fill:#878787"
           id="rect10"
           y="25.221001"
           x="107.157"
           width="12.975"
           height="4.5619998" /><rect
           style="fill:#2d2d2d"
           id="rect12"
           y="25.221001"
           x="107.157"
           width="0.45100001"
           height="4.5619998" /><rect
           style="opacity:0.35"
           id="rect14"
           y="29.257999"
           x="107.157"
           width="12.975"
           height="0.52200001" /><path
           style="opacity:0.35;fill:#ffffff"
           inkscape:connector-curvature="0"
           id="path16"
           d="m 119.835,26.478 c 0,0.255 -0.275,0.461 -0.617,0.461 l -12.438,0 c -0.34,0 -0.617,-0.188 -0.617,-0.443 l 0,-0.369 c 0,-0.256 0.277,-0.479 0.617,-0.479 l 12.438,0 c 0.342,0 0.617,0.207 0.617,0.461 l 0,0.369 z" /></g><g
         id="g18"><path
           style="fill:#6d6d6d;stroke:#6d6d6d;stroke-width:1"
           inkscape:connector-curvature="0"
           id="path20"
           d="m 106.687,7.465 c 0,-1.561 -1.275,-2.834 -2.834,-2.834 l -0.031,0 c -1.561,0 -2.836,-0.93 -2.836,-2.062 0,-1.132 -1.273,-2.061 -2.834,-2.061 l -69.645,0 0,54.701 69.645,0 c 1.561,0 2.834,-0.93 2.834,-2.062 0,-1.132 1.275,-2.061 2.836,-2.061 l 0.031,0 c 1.559,0 2.834,-1.275 2.834,-2.836 l 0,-40.785 0,0 z" /></g><path
         style="opacity:0.35"
         inkscape:connector-curvature="0"
         id="path22"
         d="m 104.28,47.815 -0.029,0 c -1.551,0 -3.102,0.606 -3.102,1.346 0,0.738 -0.982,1.346 -2.531,1.346 l -64.398,0 0,4.453 63.833,0 c 1.547,0 2.812,-0.926 2.812,-2.055 0,-1.129 1.27,-2.055 2.816,-2.055 l 0.031,0 c 1.549,0 2.814,-1.271 2.814,-2.824 l 0,-2.061 c 0.004,1.018 -0.697,1.85 -2.246,1.85 z" /><rect
         style="fill:#878787"
         id="rect24"
         y="26.34"
         x="23.905001"
         width="0.94"
         height="3.0409999" /><rect
         style="fill:#e5e500"
         id="rect26"
         y="25.069"
         x="27.642"
         width="10.242"
         height="5.5840001" /><g
         id="g28"><rect
           style="fill:#e5e500"
           id="rect30"
           y="18.865999"
           x="24.847"
           width="2.7950001"
           height="17.988001" /><polygon
           style="fill:#f3ff00"
           id="polygon32"
           points="35.158,55.721 35.158,30.653 37.884,30.653 37.884,25.069 35.158,25.069 35.158,0 27.642,0 27.642,26 37.884,26 37.884,29.719 27.642,29.719 27.642,55.721 " /></g><path
         style="opacity:0.5;fill:#686868"
         inkscape:connector-curvature="0"
         id="path34"
         d="m 101.724,28.065 c 0,13.27 -0.758,24.021 -0.758,24.021 l 0,-48.039 c 0,0 0.758,10.756 0.758,24.018 z" /><path
         style="opacity:0.16000001;fill:#ffffff"
         inkscape:connector-curvature="0"
         id="path36"
         d="m 99.819,17.839 c 0,1.417 -1.425,2.564 -3.181,2.564 l -55.519,0 c -1.757,0 -3.181,-1.049 -3.181,-2.467 l 0,-12.792 c 0,-1.418 1.424,-2.668 3.181,-2.668 l 55.519,0 c 1.756,0 3.181,1.15 3.181,2.568 l 0,12.795 z" /><g
         style="opacity:0.16000001"
         id="g38"><path
           style="fill:#ffffff"
           inkscape:connector-curvature="0"
           id="path40"
           d="m 105.595,18.178 c 0,0.78 -0.639,1.417 -1.417,1.417 l -0.352,0 c -0.777,0 -1.417,-0.638 -1.417,-1.417 l 0,-10.493 c 0,-0.78 0.64,-1.417 1.417,-1.417 l 0.352,0 c 0.778,0 1.417,0.638 1.417,1.417 l 0,10.493 z" /></g><g
         id="g42"><path
           inkscape:connector-curvature="0"
           id="path44"
           d="m 92.049,24.66 c -1.034,0 -1.876,-0.841 -1.876,-1.875 l 0,-8.422 c 0,-1.035 0.842,-1.877 1.876,-1.877 1.034,0 1.876,0.842 1.876,1.877 l 0,8.422 c 0,1.033 -0.842,1.875 -1.876,1.875 l 0,0 z" /><path
           style="fill:#6b6b6b"
           inkscape:connector-curvature="0"
           id="path46"
           d="m 92.049,12.986 c 0.759,0 1.376,0.618 1.376,1.377 l 0,8.422 c 0,0.76 -0.617,1.375 -1.376,1.375 -0.759,0 -1.376,-0.615 -1.376,-1.375 l 0,-8.422 c 0,-0.76 0.617,-1.377 1.376,-1.377 m 0,-1 c -1.312,0 -2.376,1.064 -2.376,2.377 l 0,8.422 c 0,1.312 1.062,2.375 2.376,2.375 1.312,0 2.376,-1.062 2.376,-2.375 l 0,-8.422 c 0,-1.313 -1.064,-2.377 -2.376,-2.377 l 0,0 z" /></g><g
         id="g48"><path
           inkscape:connector-curvature="0"
           id="path50"
           d="m 92.049,43.234 c -1.034,0 -1.876,-0.842 -1.876,-1.876 l 0,-8.421 c 0,-1.035 0.842,-1.877 1.876,-1.877 1.034,0 1.876,0.842 1.876,1.877 l 0,8.421 c 0,1.034 -0.842,1.876 -1.876,1.876 l 0,0 z" /><path
           style="fill:#6b6b6b"
           inkscape:connector-curvature="0"
           id="path52"
           d="m 92.049,31.56 c 0.759,0 1.376,0.618 1.376,1.377 l 0,8.421 c 0,0.759 -0.617,1.376 -1.376,1.376 -0.759,0 -1.376,-0.617 -1.376,-1.376 l 0,-8.421 c 0,-0.759 0.617,-1.377 1.376,-1.377 m 0,-1 c -1.312,0 -2.376,1.064 -2.376,2.377 l 0,8.421 c 0,1.312 1.062,2.376 2.376,2.376 1.312,0 2.376,-1.062 2.376,-2.376 l 0,-8.421 c 0,-1.312 -1.064,-2.377 -2.376,-2.377 l 0,0 z" /></g><g
         id="g54"><path
           inkscape:connector-curvature="0"
           id="path56"
           d="m 92.049,6.086 c -1.034,0 -1.876,-0.843 -1.876,-1.875 l 0,-3.711 3.752,0 0,3.711 c 0,1.034 -0.842,1.875 -1.876,1.875 l 0,0 z" /><path
           style="fill:#6b6b6b"
           inkscape:connector-curvature="0"
           id="path58"
           d="m 93.425,1 0,3.211 c 0,0.758 -0.617,1.375 -1.376,1.375 -0.759,0 -1.376,-0.617 -1.376,-1.375 l 0,-3.211 2.752,0 m 1,-1 -4.752,0 0,4.211 c 0,1.312 1.062,2.375 2.376,2.375 1.312,0 2.376,-1.063 2.376,-2.375 l 0,-4.211 0,0 z" /></g><g
         id="g60"><path
           inkscape:connector-curvature="0"
           id="path62"
           d="m 90.173,55.221 0,-3.711 c 0,-1.035 0.842,-1.877 1.876,-1.877 1.034,0 1.876,0.842 1.876,1.877 l 0,3.711 -3.752,0 z" /><path
           style="fill:#6b6b6b"
           inkscape:connector-curvature="0"
           id="path64"
           d="m 92.049,50.133 c 0.759,0 1.376,0.618 1.376,1.377 l 0,3.211 -2.752,0 0,-3.211 c 0,-0.759 0.617,-1.377 1.376,-1.377 m 0,-1 c -1.312,0 -2.376,1.062 -2.376,2.377 l 0,4.211 4.752,0 0,-4.211 c 0,-1.312 -1.064,-2.377 -2.376,-2.377 l 0,0 z" /></g></g><text
       sodipodi:linespacing="125%"
       id="text5414"
       y="365.22812"
       x="283.91559"
       style="font-style:normal;font-weight:normal;font-size:20.00025558px;line-height:125%;font-family:Sans;letter-spacing:0px;word-spacing:0px;fill:#000000;fill-opacity:1;stroke:none;stroke-width:1px;stroke-linecap:butt;stroke-linejoin:miter;stroke-opacity:1"
       xml:space="preserve"><tspan
         style="font-style:normal;font-variant:normal;font-weight:normal;font-stretch:normal;font-size:13.00016594px;font-family:serif;-inkscape-font-specification:serif"
         y="365.22812"
         x="283.91559"
         id="tspan5416"
         sodipodi:role="line">DC motor</tspan></text>
</g></svg>